<svg width="36" height="24" viewBox="0 0 36 24" fill="none" xmlns="http://www.w3.org/2000/svg">
<path d="M34.3507 0.755552C34.0849 0.935738 33.6228 1.04784 33.3606 1.01315C33.0632 0.957617 32.7826 1.08079 32.6605 1.29778C32.3755 1.8041 30.6957 2.7865 30.3964 2.60927C30.2732 2.5363 29.8823 2.52182 29.496 2.58244C28.9533 2.67092 28.7533 2.81771 28.4757 3.35254C28.0195 4.28796 26.6129 5.11867 25.9153 4.89846C25.0213 4.61017 24.1035 5.03116 23.6501 5.91998C23.3698 6.5014 22.9161 6.93198 21.8939 7.58039C20.7095 8.34985 20.4215 8.44451 19.6933 8.27855C19.2348 8.17578 18.6623 8.15023 18.3946 8.20872C17.7305 8.34592 16.8076 9.31834 16.7134 9.98593C16.586 10.7544 13.3932 12.6732 12.6326 12.4398C11.3606 12.0723 10.3622 12.4697 9.41531 13.6932C8.11569 15.3347 5.79796 16.7832 3.1075 17.6011C1.75347 18.0048 1.48772 18.185 0.999948 18.8847C0.0521847 20.2764 0.361585 21.9786 1.74224 22.8203C3.1405 23.6724 4.43896 23.2839 5.98122 21.545C7.24947 20.126 9.57463 18.7061 11.5399 18.1338C13.5228 17.572 14.2219 16.9975 14.4981 15.7144C14.6552 15.06 14.8098 14.9105 16.3331 13.9559C17.6943 13.1224 18.1416 12.9533 18.7187 13.054C19.9536 13.2789 21.3998 12.0859 21.4315 10.7785C21.4536 10.4058 21.7146 10.1505 22.8786 9.41725C23.6731 8.92329 24.5251 8.53569 24.7974 8.5523C26.0785 8.61169 27.1036 7.91669 27.1336 6.94595C27.1471 6.25474 28.8018 5.23341 29.6588 5.37917C30.3619 5.5062 31.0331 4.93926 31.105 4.18615C31.1446 3.82385 31.3983 3.54006 32.2205 3.03844C32.7974 2.68083 33.341 2.42407 33.4291 2.47619C33.5171 2.52832 33.7402 2.29877 33.9234 1.97328C34.0965 1.66587 34.464 1.30486 34.7066 1.20743C35.1364 1.02789 35.2844 0.681548 35.0027 0.514748C34.9323 0.473048 34.6341 0.585792 34.3507 0.755552Z" fill="#FFD79D"/>
</svg>
